<svg xmlns="http://www.w3.org/2000/svg" version="1.1" xmlns:xlink="http://www.w3.org/1999/xlink" xmlns:svgjs="http://svgjs.dev/svgjs" viewBox="0 0 14.853198645233075 14.54547025381385"><g transform="matrix(0.8558495276543817,0,0,0.8558495276543817,2.118916004065026,11.503875967707007)"><g clip-path="url(#SvgjsClipPath3807)"><g clip-path="url(#ba51ccff9-2920-467d-aaa4-27d2e3f84662cb38fdce-28a0-4f6b-9405-8fbf2eb9b2b7)"><path d=" M 9.276811589231247 -5.0471575373265445 C 9.276811589231247 -3.3487882511949385 7.899945387224192 -1.9719745052303246 6.201576101092586 -1.9719745052303246 C 4.503311727045862 -1.9719745052303246 3.1264979810812497 -3.3487882511949385 3.1264979810812497 -5.0471575373265445 C 3.1264979810812497 -6.745526823458152 4.503311727045862 -8.122393025465206 6.201576101092586 -8.122393025465206 C 7.899945387224192 -8.122393025465206 9.276811589231247 -6.745526823458152 9.276811589231247 -5.0471575373265445" fill="#d3b39f" transform="matrix(1,0,0,1,0,0)" fill-rule="nonzero"></path></g><g clip-path="url(#ba51ccff9-2920-467d-aaa4-27d2e3f84662cb38fdce-28a0-4f6b-9405-8fbf2eb9b2b7)"><path d=" M 10.244992764575816 -5.0471575373265445 C 10.244992764575816 -2.8176708214737616 8.43111527298781 -1.003793329885756 6.201628557135027 -1.003793329885756 C 3.972141841282245 -1.003793329885756 2.158316805736683 -2.8176708214737616 2.158316805736683 -5.0471575373265445 C 2.158316805736683 -7.276696709221769 3.972141841282245 -9.090521744767333 6.201628557135027 -9.090521744767333 C 8.43111527298781 -9.090521744767333 10.244992764575816 -7.276696709221769 10.244992764575816 -5.0471575373265445 Z" fill="none" transform="matrix(1,0,0,1,0,0)" fill-rule="nonzero" stroke-dasharray="none" stroke-miterlimit="4" stroke-linejoin="miter" stroke-linecap="butt" stroke-width="0.0489414875980106" stroke="#d3b39f"></path></g><g clip-path="url(#ba51ccff9-2920-467d-aaa4-27d2e3f84662cb38fdce-28a0-4f6b-9405-8fbf2eb9b2b7)"><path d=" M 10.000967255137503 -5.0471575373265445 C 10.000967255137503 -2.9522205703364595 8.296565524125112 -1.2478188393240686 6.201628557135027 -1.2478188393240686 C 4.106691590144942 -1.2478188393240686 2.402342315174995 -2.9522205703364595 2.402342315174995 -5.0471575373265445 C 2.402342315174995 -7.142146960359071 4.106691590144942 -8.84649623532902 6.201628557135027 -8.84649623532902 C 8.296565524125112 -8.84649623532902 10.000967255137503 -7.142146960359071 10.000967255137503 -5.0471575373265445 Z" fill="none" transform="matrix(1,0,0,1,0,0)" fill-rule="nonzero" stroke-dasharray="none" stroke-miterlimit="4" stroke-linejoin="miter" stroke-linecap="butt" stroke-width="0.0489414875980106" stroke="#d3b39f"></path></g><g clip-path="url(#ba51ccff9-2920-467d-aaa4-27d2e3f84662cb38fdce-28a0-4f6b-9405-8fbf2eb9b2b7)"><path d=" M 9.647833177420667 -5.047209993368987 C 9.647833177420667 -3.143999861502942 8.104891145043513 -1.6010578291257875 6.201576101092586 -1.6010578291257875 C 4.298365969226541 -1.6010578291257875 2.755423936849388 -3.143999861502942 2.755423936849388 -5.047209993368987 C 2.755423936849388 -6.9504201252350315 4.29836596922654 -8.493362157612186 6.201576101092586 -8.493362157612186 C 8.104891145043513 -8.493362157612186 9.647833177420667 -6.9504201252350315 9.647833177420667 -5.047209993368987 Z" fill="none" transform="matrix(1,0,0,1,0,0)" fill-rule="nonzero" stroke-dasharray="none" stroke-miterlimit="4" stroke-linejoin="miter" stroke-linecap="butt" stroke-width="0.09767315102625482" stroke="#d3b39f"></path></g><g clip-path="url(#ba51ccff9-2920-467d-aaa4-27d2e3f84662cb38fdce-28a0-4f6b-9405-8fbf2eb9b2b7)"><path d=" M 9.565424734744918 -8.46923237808905 L 8.362922417813733 -7.249367111109697 M 4.50383628747028 -3.4064898978806966 L 2.764446376149344 -1.6723980468463608" fill="none" transform="matrix(1,0,0,1,0,0)" fill-rule="nonzero" stroke-dasharray="none" stroke-miterlimit="4" stroke-linejoin="miter" stroke-linecap="butt" stroke-width="0.09767315102625482" stroke="#876a57"></path></g><g clip-path="url(#ba51ccff9-2920-467d-aaa4-27d2e3f84662cb38fdce-28a0-4f6b-9405-8fbf2eb9b2b7)"><path d=" M 3.977492357611288 -7.2316369687644375 L 2.765285672828408 -8.46923237808905 M 7.867370184867961 -3.3847730963098757 L 9.564585438065853 -1.6723980468463608" fill="none" transform="matrix(1,0,0,1,0,0)" fill-rule="nonzero" stroke-dasharray="none" stroke-miterlimit="4" stroke-linejoin="miter" stroke-linecap="butt" stroke-width="0.09767315102625482" stroke="#876a57"></path></g><g clip-path="url(#ba51ccff9-2920-467d-aaa4-27d2e3f84662cb38fdce-28a0-4f6b-9405-8fbf2eb9b2b7)"><path d=" M 6.201628557135028 -9.678868716792293 C 6.550618607498977 -9.678868716792293 6.833566500428955 -9.96181660972227 6.833566500428955 -10.310806660086218 C 6.833566500428955 -10.659796710450168 6.550618607498977 -10.942744603380145 6.201628557135028 -10.942744603380145 C 5.852638506771079 -10.942744603380145 5.569690613841101 -10.659796710450168 5.569690613841101 -10.310806660086218 C 5.569690613841101 -9.96181660972227 5.852638506771079 -9.678868716792293 6.201628557135028 -9.678868716792293 Z" fill="none" transform="matrix(1,0,0,1,0,0)" fill-rule="nonzero" stroke-dasharray="none" stroke-miterlimit="4" stroke-linejoin="miter" stroke-linecap="butt" stroke-width="0.09767315102625482" stroke="#d3b39f"></path></g><g clip-path="url(#ba51ccff9-2920-467d-aaa4-27d2e3f84662cb38fdce-28a0-4f6b-9405-8fbf2eb9b2b7)"><path d=" M 6.201628557135028 -9.848721382218185 C 6.3678982858041255 -9.846949871760867 6.522301527506318 -9.93463833455091 6.605951985658545 -10.07834415131529 C 6.689602443810772 -10.222049968079673 6.689602443810773 -10.399615808135204 6.605951985658547 -10.543321624899587 C 6.522301527506321 -10.687027441663968 6.367898285804128 -10.774715904454013 6.201628557135032 -10.772944393996694 C 6.035358828465931 -10.774715904454014 5.880955586763738 -10.68702744166397 5.797305128611511 -10.543321624899589 C 5.713654670459284 -10.399615808135207 5.713654670459283 -10.222049968079675 5.79730512861151 -10.078344151315294 C 5.8809555867637355 -9.934638334550911 6.035358828465928 -9.846949871760867 6.201628557135026 -9.848721382218185 Z" fill="none" transform="matrix(1,0,0,1,0,0)" fill-rule="nonzero" stroke-dasharray="none" stroke-miterlimit="4" stroke-linejoin="miter" stroke-linecap="butt" stroke-width="0.09767315102625482" stroke="#d3b39f"></path></g><g clip-path="url(#ba51ccff9-2920-467d-aaa4-27d2e3f84662cb38fdce-28a0-4f6b-9405-8fbf2eb9b2b7)"><path d=" M 6.201628557135028 -8.502594421081907 L 6.201628557135028 -9.664443305120853" fill="none" transform="matrix(1,0,0,1,0,0)" fill-rule="nonzero" stroke-dasharray="none" stroke-miterlimit="4" stroke-linejoin="miter" stroke-linecap="butt" stroke-width="0.09767315102625482" stroke="#d3b39f"></path></g><g clip-path="url(#ba51ccff9-2920-467d-aaa4-27d2e3f84662cb38fdce-28a0-4f6b-9405-8fbf2eb9b2b7)"><path d=" M 6.165119151595675 -0.25 L 6.165119151595675 -1.6278628668134445" fill="none" transform="matrix(1,0,0,1,0,0)" fill-rule="nonzero" stroke-dasharray="none" stroke-miterlimit="4" stroke-linejoin="miter" stroke-linecap="butt" stroke-width="0.09767315102625482" stroke="#d3b39f"></path></g><g clip-path="url(#ba51ccff9-2920-467d-aaa4-27d2e3f84662cb38fdce-28a0-4f6b-9405-8fbf2eb9b2b7)"><path d=" M 6.201628557135028 -10.403024382698547 C 6.150698115272112 -10.403024382698547 6.109410834522699 -10.361737101949135 6.109410834522699 -10.310806660086218 C 6.109410834522699 -10.259876218223303 6.150698115272112 -10.218588937473891 6.201628557135028 -10.218588937473891 C 6.2525589989979435 -10.218588937473891 6.293846279747356 -10.259876218223303 6.293846279747356 -10.310806660086218 C 6.293846279747356 -10.361737101949135 6.2525589989979435 -10.403024382698547 6.201628557135028 -10.403024382698547" fill="#876a57" transform="matrix(1,0,0,1,0,0)" fill-rule="nonzero"></path></g><g clip-path="url(#ba51ccff9-2920-467d-aaa4-27d2e3f84662cb38fdce-28a0-4f6b-9405-8fbf2eb9b2b7)"><path d=" M 6.165119151595675 -3.3540338554390985 C 6.2160495934585915 -3.3540338554390985 6.257336874208004 -3.395321136188511 6.257336874208004 -3.4462515780514273 C 6.257336874208004 -3.4971820199143426 6.2160495934585915 -3.538469300663756 6.165119151595675 -3.538469300663756 C 6.11418870973276 -3.538469300663756 6.072901428983347 -3.4971820199143426 6.072901428983347 -3.4462515780514273 C 6.072901428983347 -3.395321136188511 6.11418870973276 -3.3540338554390985 6.165119151595675 -3.3540338554390985" fill="#876a57" transform="matrix(1,0,0,1,0,0)" fill-rule="nonzero"></path></g><g clip-path="url(#ba51ccff9-2920-467d-aaa4-27d2e3f84662cb38fdce-28a0-4f6b-9405-8fbf2eb9b2b7)"><path d=" M 5.394749712298372 -3.592761304590809 C 5.4456801541612885 -3.592761304590809 5.486967434910701 -3.6340485853402225 5.486967434910701 -3.6849790272031377 C 5.486967434910701 -3.735909469066054 5.4456801541612885 -3.7771967498154666 5.394749712298372 -3.7771967498154666 C 5.343819270435457 -3.7771967498154666 5.302531989686044 -3.735909469066054 5.302531989686044 -3.6849790272031377 C 5.302531989686044 -3.6340485853402225 5.343819270435457 -3.592761304590809 5.394749712298372 -3.592761304590809" fill="#876a57" transform="matrix(1,0,0,1,0,0)" fill-rule="nonzero"></path></g><g clip-path="url(#ba51ccff9-2920-467d-aaa4-27d2e3f84662cb38fdce-28a0-4f6b-9405-8fbf2eb9b2b7)"><path d=" M 6.935488590892978 -3.592761304590809 C 6.986419032755895 -3.592761304590809 7.027706313505306 -3.6340485853402225 7.027706313505306 -3.6849790272031377 C 7.027706313505306 -3.735909469066054 6.986419032755895 -3.7771967498154666 6.935488590892978 -3.7771967498154666 C 6.884558149030062 -3.7771967498154666 6.84327086828065 -3.735909469066054 6.84327086828065 -3.6849790272031377 C 6.84327086828065 -3.6340485853402225 6.884558149030062 -3.592761304590809 6.935488590892978 -3.592761304590809" fill="#876a57" transform="matrix(1,0,0,1,0,0)" fill-rule="nonzero"></path></g><g clip-path="url(#ba51ccff9-2920-467d-aaa4-27d2e3f84662cb38fdce-28a0-4f6b-9405-8fbf2eb9b2b7)"><path d=" M 6.201628557135028 -6.787281833241663 C 6.150698115272112 -6.787281833241663 6.109410834522699 -6.74599455249225 6.109410834522699 -6.695064110629335 C 6.109410834522699 -6.644133668766419 6.150698115272112 -6.602846388017006 6.201628557135028 -6.602846388017006 C 6.2525589989979435 -6.602846388017006 6.293846279747356 -6.644133668766419 6.293846279747356 -6.695064110629335 C 6.293846279747356 -6.74599455249225 6.2525589989979435 -6.787281833241663 6.201628557135028 -6.787281833241663" fill="#876a57" transform="matrix(1,0,0,1,0,0)" fill-rule="nonzero"></path></g><g clip-path="url(#ba51ccff9-2920-467d-aaa4-27d2e3f84662cb38fdce-28a0-4f6b-9405-8fbf2eb9b2b7)"><path d=" M 6.971997996432331 -6.548606840132395 C 6.921067554569415 -6.548606840132395 6.8797802738200025 -6.507319559382982 6.8797802738200025 -6.456389117520066 C 6.8797802738200025 -6.40545867565715 6.921067554569415 -6.364171394907737 6.971997996432331 -6.364171394907737 C 7.022928438295247 -6.364171394907737 7.064215719044659 -6.40545867565715 7.064215719044659 -6.456389117520066 C 7.064215719044659 -6.507319559382982 7.022928438295247 -6.548606840132395 6.971997996432331 -6.548606840132395" fill="#876a57" transform="matrix(1,0,0,1,0,0)" fill-rule="nonzero"></path></g><g clip-path="url(#ba51ccff9-2920-467d-aaa4-27d2e3f84662cb38fdce-28a0-4f6b-9405-8fbf2eb9b2b7)"><path d=" M 5.4313115738801665 -6.548606840132395 C 5.38038113201725 -6.548606840132395 5.3390938512678385 -6.507319559382982 5.3390938512678385 -6.456389117520066 C 5.3390938512678385 -6.40545867565715 5.38038113201725 -6.364171394907737 5.4313115738801665 -6.364171394907737 C 5.482242015743083 -6.364171394907737 5.5235292964924945 -6.40545867565715 5.5235292964924945 -6.456389117520066 C 5.5235292964924945 -6.507319559382982 5.482242015743083 -6.548606840132395 5.4313115738801665 -6.548606840132395" fill="#876a57" transform="matrix(1,0,0,1,0,0)" fill-rule="nonzero"></path></g><g clip-path="url(#ba51ccff9-2920-467d-aaa4-27d2e3f84662cb38fdce-28a0-4f6b-9405-8fbf2eb9b2b7)"><path d=" M 1.5259592141032225 -5.086552025200185 L 2.750335700732553 -5.086552025200185" fill="none" transform="matrix(1,0,0,1,0,0)" fill-rule="nonzero" stroke-dasharray="none" stroke-miterlimit="4" stroke-linejoin="miter" stroke-linecap="butt" stroke-width="0.09767315102625482" stroke="#d3b39f"></path></g><g clip-path="url(#ba51ccff9-2920-467d-aaa4-27d2e3f84662cb38fdce-28a0-4f6b-9405-8fbf2eb9b2b7)"><path d=" M 9.66661244061476 -5.086552025200185 L 10.877350356209275 -5.086552025200185" fill="none" transform="matrix(1,0,0,1,0,0)" fill-rule="nonzero" stroke-dasharray="none" stroke-miterlimit="4" stroke-linejoin="miter" stroke-linecap="butt" stroke-width="0.09767315102625482" stroke="#d3b39f"></path></g><g clip-path="url(#ba51ccff9-2920-467d-aaa4-27d2e3f84662cb38fdce-28a0-4f6b-9405-8fbf2eb9b2b7)"><path d=" M 9.049414645246923 -4.688305750983576 L 6.433641632854214 -4.650747224595392 C 6.433641632854214 -4.650747224595392 6.366917546868502 -4.409292061236718 6.138523938077786 -4.409292061236718 C 5.910340153456837 -4.409292061236718 5.843248875174034 -4.623942186907735 5.843248875174034 -4.623942186907735 L 3.26078544973174 -4.688568031195784" fill="none" transform="matrix(1,0,0,1,0,0)" fill-rule="nonzero" stroke-dasharray="none" stroke-miterlimit="4" stroke-linejoin="miter" stroke-linecap="butt" stroke-width="0.10554155739249445" stroke="#595959"></path></g><g clip-path="url(#ba51ccff9-2920-467d-aaa4-27d2e3f84662cb38fdce-28a0-4f6b-9405-8fbf2eb9b2b7)"><path d=" M 6.1317571086028195 -4.799355192832438 L 6.131966932772586 -5.429037526301377 C 6.131966932772586 -5.429037526301377 4.962354554452284 -5.9742656314393425 3.827940180610293 -6.018276251047843 C 3.792794632174422 -6.019640108151325 3.3970137919525687 -5.332308584039071 3.3970137919525687 -5.332308584039071 C 3.3970137919525687 -5.332308584039071 5.4546020567242355 -5.019198466705174 6.1317571086028195 -4.799355192832438 Z M 3.51131550843281 -5.288350420473011 L 3.3970137919525687 -5.077267305688022 L 6.142720421473114 -4.781572594444737 L 3.344243013256321 -4.857424031815287 M 6.144084278576595 -4.796627478625475 L 6.140779547902774 -5.429037526301377 C 6.140779547902774 -5.429037526301377 7.310391926223077 -5.9742656314393425 8.444806300065068 -6.018276251047843 C 8.480004304543378 -6.019640108151325 8.875732688722792 -5.332308584039071 8.875732688722792 -5.332308584039071 C 8.875732688722792 -5.332308584039071 6.821239330455179 -5.016470752498211 6.144084278576595 -4.796627478625475 Z M 8.76143097224255 -5.288350420473011 L 8.875732688722792 -5.077267305688022 L 6.133120965706301 -4.781572594444737 L 8.92850346741904 -4.857424031815287" fill="none" transform="matrix(1,0,0,1,0,0)" fill-rule="nonzero" stroke-dasharray="none" stroke-miterlimit="4" stroke-linejoin="miter" stroke-linecap="butt" stroke-width="0.07915616804437084" stroke="#595959"></path></g></g><g><path d=" M 0.426 0.0014999999999998348 Q 0.5145 0.0014999999999998348 0.5625 0.02024999999999988 Q 0.6105 0.038999999999999924 0.645 0.05999999999999983 Q 0.663 0.07050000000000001 0.67425 0.07574999999999998 Q 0.6855 0.08099999999999996 0.6960000000000001 0.08099999999999996 Q 0.72 0.08099999999999996 0.729 0.014999999999999902 L 0.7635000000000001 0.014999999999999902 Q 0.762 0.04349999999999987 0.75975 0.08324999999999994 Q 0.7575000000000001 0.123 0.75675 0.1874999999999999 Q 0.756 0.2519999999999999 0.756 0.357 L 0.7215 0.357 Q 0.7155 0.2789999999999999 0.6855 0.2054999999999999 Q 0.6555 0.1319999999999999 0.60075 0.08474999999999999 Q 0.546 0.03749999999999987 0.4665 0.03749999999999987 Q 0.3945 0.03749999999999987 0.34800000000000003 0.07799999999999985 Q 0.3015 0.11849999999999994 0.3015 0.1904999999999999 Q 0.3015 0.25049999999999994 0.3315 0.2932499999999999 Q 0.3615 0.33599999999999997 0.41925 0.37649999999999995 Q 0.47700000000000004 0.4169999999999999 0.5595 0.474 Q 0.6315000000000001 0.5205 0.6885 0.567 Q 0.7455 0.6134999999999999 0.78 0.6719999999999999 Q 0.8145 0.7304999999999999 0.8145 0.8114999999999999 Q 0.8145 0.9105 0.76275 0.975 Q 0.711 1.0394999999999999 0.627 1.07175 Q 0.543 1.1039999999999999 0.4425 1.1039999999999999 Q 0.34950000000000003 1.1039999999999999 0.294 1.0859999999999999 Q 0.23850000000000002 1.068 0.201 1.0485 Q 0.168 1.0274999999999999 0.15 1.0274999999999999 Q 0.126 1.0274999999999999 0.117 1.0935 L 0.0825 1.0935 Q 0.0855 1.0574999999999999 0.08625000000000001 1.0095 Q 0.08700000000000001 0.9615 0.08775000000000001 0.88425 Q 0.0885 0.8069999999999999 0.0885 0.6884999999999999 L 0.123 0.6884999999999999 Q 0.129 0.7875 0.15675 0.87375 Q 0.1845 0.96 0.24225 1.0125 Q 0.3 1.065 0.396 1.065 Q 0.47400000000000003 1.065 0.528 1.023 Q 0.582 0.981 0.582 0.897 Q 0.582 0.8039999999999999 0.519 0.74325 Q 0.456 0.6824999999999999 0.357 0.6179999999999999 Q 0.28650000000000003 0.5714999999999999 0.225 0.5249999999999999 Q 0.1635 0.4784999999999999 0.12675 0.4185 Q 0.09 0.35849999999999993 0.09 0.2759999999999999 Q 0.09 0.1815 0.13725 0.12074999999999991 Q 0.1845 0.05999999999999983 0.26175 0.030749999999999833 Q 0.339 0.0014999999999998348 0.426 0.0014999999999998348 M 1.5659765625 1.083 L 1.5659765625 1.053 Q 1.6139765625 1.05 1.6379765625 1.041 Q 1.6619765625 1.032 1.6702265625 1.005 Q 1.6784765625 0.978 1.6784765625 0.9239999999999999 L 1.6784765625 0.17999999999999994 Q 1.6784765625 0.12449999999999994 1.6702265625 0.09824999999999995 Q 1.6619765625 0.07199999999999984 1.6372265625 0.062249999999999917 Q 1.6124765625 0.05249999999999999 1.5659765625 0.050999999999999934 L 1.5659765625 0.020999999999999908 Q 1.6064765625000001 0.022499999999999964 1.6717265625 0.02400000000000002 Q 1.7369765625 0.025499999999999856 1.8014765625 0.025499999999999856 Q 1.8704765625 0.025499999999999856 1.9312265625 0.02400000000000002 Q 1.9919765625 0.022499999999999964 2.0294765625 0.020999999999999908 L 2.0294765625 0.050999999999999934 Q 1.9814765625000001 0.05249999999999999 1.9567265625 0.062249999999999917 Q 1.9319765625 0.07199999999999984 1.9244765625000002 0.09824999999999995 Q 1.9169765625 0.12449999999999994 1.9169765625 0.17999999999999994 L 1.9169765625 0.9239999999999999 Q 1.9169765625 0.978 1.9252265625000002 1.005 Q 1.9334765625 1.032 1.9574765625000001 1.041 Q 1.9814765625000001 1.05 2.0294765625 1.053 L 2.0294765625 1.083 Q 1.9919765625 1.08 1.9312265625 1.07925 Q 1.8704765625 1.0785 1.8014765625 1.0785 Q 1.7369765625 1.0785 1.6717265625 1.07925 Q 1.6064765625000001 1.08 1.5659765625 1.083 M 0.9299765625 1.083 L 0.9299765625 1.053 Q 0.9779765625 1.05 1.0019765625 1.041 Q 1.0259765625 1.032 1.0342265625 1.005 Q 1.0424765625 0.978 1.0424765625 0.9239999999999999 L 1.0424765625 0.17999999999999994 Q 1.0424765625 0.12449999999999994 1.0342265625 0.09824999999999995 Q 1.0259765625 0.07199999999999984 1.0012265625 0.062249999999999917 Q 0.9764765625 0.05249999999999999 0.9299765625 0.050999999999999934 L 0.9299765625 0.020999999999999908 Q 0.9689765625 0.022499999999999964 1.0312265625 0.02400000000000002 Q 1.0934765625 0.025499999999999856 1.1669765625 0.025499999999999856 Q 1.2299765625 0.025499999999999856 1.2914765625 0.02400000000000002 Q 1.3529765625 0.022499999999999964 1.3934765625 0.020999999999999908 L 1.3934765625 0.050999999999999934 Q 1.3454765625 0.05249999999999999 1.3207265625 0.062249999999999917 Q 1.2959765625 0.07199999999999984 1.2884765625 0.09824999999999995 Q 1.2809765625 0.12449999999999994 1.2809765625 0.17999999999999994 L 1.2809765625 0.9239999999999999 Q 1.2809765625 0.978 1.2892265625000001 1.005 Q 1.2974765625 1.032 1.3214765625 1.041 Q 1.3454765625 1.05 1.3934765625 1.053 L 1.3934765625 1.083 Q 1.3529765625 1.08 1.2914765625 1.07925 Q 1.2299765625 1.0785 1.1669765625 1.0785 Q 1.0934765625 1.0785 1.0312265625 1.07925 Q 0.9689765625 1.08 0.9299765625 1.083 M 1.1834765625 0.564 L 1.1834765625 0.5339999999999999 L 1.7759765625 0.5339999999999999 L 1.7759765625 0.564 L 1.1834765625 0.564 M 2.596458251953125 0.020999999999999908 L 2.596458251953125 0.050999999999999934 Q 2.548458251953125 0.05249999999999999 2.523708251953125 0.062249999999999917 Q 2.498958251953125 0.07199999999999984 2.491458251953125 0.09824999999999995 Q 2.4839582519531254 0.12449999999999994 2.4839582519531254 0.17999999999999994 L 2.4839582519531254 0.9239999999999999 Q 2.4839582519531254 0.978 2.4922082519531252 1.005 Q 2.500458251953125 1.032 2.524458251953125 1.041 Q 2.548458251953125 1.05 2.596458251953125 1.053 L 2.596458251953125 1.083 Q 2.5559582519531254 1.08 2.4944582519531253 1.07925 Q 2.432958251953125 1.0785 2.3699582519531255 1.0785 Q 2.2964582519531254 1.0785 2.2342082519531252 1.07925 Q 2.171958251953125 1.08 2.1329582519531254 1.083 L 2.1329582519531254 1.053 Q 2.1809582519531254 1.05 2.2049582519531254 1.041 Q 2.228958251953125 1.032 2.2372082519531253 1.005 Q 2.245458251953125 0.978 2.245458251953125 0.9239999999999999 L 2.245458251953125 0.17999999999999994 Q 2.245458251953125 0.12449999999999994 2.2372082519531253 0.09824999999999995 Q 2.228958251953125 0.07199999999999984 2.2042082519531254 0.062249999999999917 Q 2.1794582519531254 0.05249999999999999 2.1329582519531254 0.050999999999999934 L 2.1329582519531254 0.020999999999999908 Q 2.171958251953125 0.022499999999999964 2.2342082519531252 0.02400000000000002 Q 2.2964582519531254 0.025499999999999856 2.3699582519531255 0.025499999999999856 Q 2.432958251953125 0.025499999999999856 2.4944582519531253 0.02400000000000002 Q 2.5559582519531254 0.022499999999999964 2.596458251953125 0.020999999999999908 M 3.6824230957031254 0.020999999999999908 L 3.6824230957031254 0.04949999999999988 Q 3.6344230957031254 0.05999999999999983 3.579673095703125 0.09149999999999991 Q 3.5249230957031252 0.123 3.464923095703125 0.1934999999999999 L 3.182923095703125 0.5295 L 3.2699230957031253 0.4049999999999999 L 3.626923095703125 0.9615 Q 3.6479230957031255 0.996 3.6719230957031255 1.017 Q 3.695923095703125 1.038 3.7349230957031256 1.053 L 3.7349230957031256 1.083 Q 3.6824230957031254 1.08 3.617923095703125 1.07925 Q 3.5534230957031254 1.0785 3.500923095703125 1.0785 Q 3.4694230957031253 1.0785 3.4244230957031254 1.07925 Q 3.3794230957031255 1.08 3.3104230957031255 1.083 L 3.3104230957031255 1.053 Q 3.371923095703125 1.05 3.3846730957031252 1.03575 Q 3.3974230957031253 1.0215 3.3734230957031253 0.9854999999999999 L 3.1559230957031255 0.633 Q 3.134923095703125 0.5985 3.1184230957031254 0.5812499999999999 Q 3.101923095703125 0.564 3.0854230957031255 0.5572499999999999 Q 3.0689230957031253 0.5505 3.041923095703125 0.5489999999999999 L 3.041923095703125 0.5175 Q 3.1079230957031254 0.5159999999999999 3.159673095703125 0.48149999999999993 Q 3.2114230957031253 0.44699999999999995 3.2729230957031255 0.37649999999999995 L 3.3614230957031253 0.2699999999999999 Q 3.418423095703125 0.2024999999999999 3.4281730957031256 0.15374999999999994 Q 3.4379230957031255 0.10499999999999998 3.4086730957031253 0.07799999999999985 Q 3.3794230957031255 0.050999999999999934 3.3194230957031254 0.04949999999999988 L 3.3194230957031254 0.020999999999999908 Q 3.3749230957031253 0.022499999999999964 3.4251730957031254 0.02400000000000002 Q 3.4754230957031256 0.025499999999999856 3.5414230957031254 0.025499999999999856 Q 3.628423095703125 0.025499999999999856 3.6824230957031254 0.020999999999999908 M 3.1634230957031253 0.020999999999999908 L 3.1634230957031253 0.050999999999999934 Q 3.1154230957031253 0.05249999999999999 3.090673095703125 0.062249999999999917 Q 3.065923095703125 0.07199999999999984 3.0584230957031253 0.09824999999999995 Q 3.0509230957031255 0.12449999999999994 3.0509230957031255 0.17999999999999994 L 3.0509230957031255 0.9239999999999999 Q 3.0509230957031255 0.978 3.0591730957031253 1.005 Q 3.067423095703125 1.032 3.0914230957031252 1.041 Q 3.1154230957031253 1.05 3.1634230957031253 1.053 L 3.1634230957031253 1.083 Q 3.1229230957031255 1.08 3.0614230957031254 1.07925 Q 2.9999230957031253 1.0785 2.9369230957031256 1.0785 Q 2.8649230957031255 1.0785 2.8011730957031253 1.07925 Q 2.737423095703125 1.08 2.6999230957031255 1.083 L 2.6999230957031255 1.053 Q 2.7479230957031255 1.05 2.7719230957031256 1.041 Q 2.795923095703125 1.032 2.8041730957031255 1.005 Q 2.8124230957031253 0.978 2.8124230957031253 0.9239999999999999 L 2.8124230957031253 0.17999999999999994 Q 2.8124230957031253 0.12449999999999994 2.8041730957031255 0.09824999999999995 Q 2.795923095703125 0.07199999999999984 2.7711730957031255 0.062249999999999917 Q 2.7464230957031255 0.05249999999999999 2.6999230957031255 0.050999999999999934 L 2.6999230957031255 0.020999999999999908 Q 2.737423095703125 0.022499999999999964 2.8011730957031253 0.02400000000000002 Q 2.8649230957031255 0.025499999999999856 2.9369230957031256 0.025499999999999856 Q 2.9999230957031253 0.025499999999999856 3.0614230957031254 0.02400000000000002 Q 3.1229230957031255 0.022499999999999964 3.1634230957031253 0.020999999999999908 M 4.148906982421876 0.0014999999999998348 Q 4.237406982421875 0.0014999999999998348 4.2854069824218755 0.02024999999999988 Q 4.3334069824218755 0.038999999999999924 4.367906982421875 0.05999999999999983 Q 4.385906982421876 0.07050000000000001 4.397156982421875 0.07574999999999998 Q 4.408406982421876 0.08099999999999996 4.418906982421875 0.08099999999999996 Q 4.442906982421875 0.08099999999999996 4.4519069824218755 0.014999999999999902 L 4.486406982421876 0.014999999999999902 Q 4.484906982421876 0.04349999999999987 4.482656982421876 0.08324999999999994 Q 4.480406982421876 0.123 4.479656982421876 0.1874999999999999 Q 4.478906982421876 0.2519999999999999 4.478906982421876 0.357 L 4.444406982421875 0.357 Q 4.438406982421876 0.2789999999999999 4.408406982421876 0.2054999999999999 Q 4.378406982421875 0.1319999999999999 4.323656982421875 0.08474999999999999 Q 4.268906982421876 0.03749999999999987 4.189406982421875 0.03749999999999987 Q 4.117406982421875 0.03749999999999987 4.070906982421875 0.07799999999999985 Q 4.024406982421875 0.11849999999999994 4.024406982421875 0.1904999999999999 Q 4.024406982421875 0.25049999999999994 4.054406982421876 0.2932499999999999 Q 4.084406982421876 0.33599999999999997 4.142156982421875 0.37649999999999995 Q 4.199906982421876 0.4169999999999999 4.282406982421875 0.474 Q 4.354406982421875 0.5205 4.411406982421876 0.567 Q 4.468406982421875 0.6134999999999999 4.502906982421876 0.6719999999999999 Q 4.537406982421875 0.7304999999999999 4.537406982421875 0.8114999999999999 Q 4.537406982421875 0.9105 4.485656982421876 0.975 Q 4.433906982421876 1.0394999999999999 4.349906982421875 1.07175 Q 4.265906982421876 1.1039999999999999 4.165406982421875 1.1039999999999999 Q 4.072406982421875 1.1039999999999999 4.016906982421875 1.0859999999999999 Q 3.9614069824218756 1.068 3.9239069824218755 1.0485 Q 3.8909069824218756 1.0274999999999999 3.8729069824218754 1.0274999999999999 Q 3.8489069824218753 1.0274999999999999 3.8399069824218754 1.0935 L 3.8054069824218755 1.0935 Q 3.8084069824218756 1.0574999999999999 3.8091569824218756 1.0095 Q 3.8099069824218756 0.9615 3.8106569824218757 0.88425 Q 3.8114069824218753 0.8069999999999999 3.8114069824218753 0.6884999999999999 L 3.8459069824218757 0.6884999999999999 Q 3.8519069824218755 0.7875 3.8796569824218756 0.87375 Q 3.9074069824218753 0.96 3.9651569824218753 1.0125 Q 4.022906982421875 1.065 4.118906982421875 1.065 Q 4.196906982421876 1.065 4.250906982421876 1.023 Q 4.304906982421875 0.981 4.304906982421875 0.897 Q 4.304906982421875 0.8039999999999999 4.241906982421876 0.74325 Q 4.178906982421876 0.6824999999999999 4.079906982421876 0.6179999999999999 Q 4.009406982421876 0.5714999999999999 3.9479069824218755 0.5249999999999999 Q 3.8864069824218754 0.4784999999999999 3.8496569824218754 0.4185 Q 3.8129069824218753 0.35849999999999993 3.8129069824218753 0.2759999999999999 Q 3.8129069824218753 0.1815 3.8601569824218753 0.12074999999999991 Q 3.9074069824218753 0.05999999999999983 3.9846569824218756 0.030749999999999833 Q 4.061906982421876 0.0014999999999998348 4.148906982421876 0.0014999999999998348 M 5.288883544921876 1.083 L 5.288883544921876 1.053 Q 5.336883544921876 1.05 5.360883544921876 1.041 Q 5.384883544921876 1.032 5.393133544921875 1.005 Q 5.401383544921876 0.978 5.401383544921876 0.9239999999999999 L 5.401383544921876 0.17999999999999994 Q 5.401383544921876 0.12449999999999994 5.393133544921875 0.09824999999999995 Q 5.384883544921876 0.07199999999999984 5.360133544921876 0.062249999999999917 Q 5.335383544921876 0.05249999999999999 5.288883544921876 0.050999999999999934 L 5.288883544921876 0.020999999999999908 Q 5.329383544921876 0.022499999999999964 5.394633544921875 0.02400000000000002 Q 5.459883544921875 0.025499999999999856 5.524383544921876 0.025499999999999856 Q 5.593383544921876 0.025499999999999856 5.6541335449218755 0.02400000000000002 Q 5.714883544921875 0.022499999999999964 5.752383544921876 0.020999999999999908 L 5.752383544921876 0.050999999999999934 Q 5.704383544921876 0.05249999999999999 5.6796335449218756 0.062249999999999917 Q 5.6548835449218755 0.07199999999999984 5.647383544921876 0.09824999999999995 Q 5.639883544921876 0.12449999999999994 5.639883544921876 0.17999999999999994 L 5.639883544921876 0.9239999999999999 Q 5.639883544921876 0.978 5.648133544921876 1.005 Q 5.656383544921876 1.032 5.680383544921876 1.041 Q 5.704383544921876 1.05 5.752383544921876 1.053 L 5.752383544921876 1.083 Q 5.714883544921875 1.08 5.6541335449218755 1.07925 Q 5.593383544921876 1.0785 5.524383544921876 1.0785 Q 5.459883544921875 1.0785 5.394633544921875 1.07925 Q 5.329383544921876 1.08 5.288883544921876 1.083 M 4.652883544921876 1.083 L 4.652883544921876 1.053 Q 4.700883544921876 1.05 4.724883544921876 1.041 Q 4.748883544921876 1.032 4.757133544921875 1.005 Q 4.7653835449218755 0.978 4.7653835449218755 0.9239999999999999 L 4.7653835449218755 0.17999999999999994 Q 4.7653835449218755 0.12449999999999994 4.757133544921875 0.09824999999999995 Q 4.748883544921876 0.07199999999999984 4.724133544921876 0.062249999999999917 Q 4.699383544921876 0.05249999999999999 4.652883544921876 0.050999999999999934 L 4.652883544921876 0.020999999999999908 Q 4.691883544921875 0.022499999999999964 4.754133544921876 0.02400000000000002 Q 4.816383544921876 0.025499999999999856 4.889883544921876 0.025499999999999856 Q 4.9528835449218755 0.025499999999999856 5.014383544921875 0.02400000000000002 Q 5.075883544921876 0.022499999999999964 5.1163835449218755 0.020999999999999908 L 5.1163835449218755 0.050999999999999934 Q 5.0683835449218755 0.05249999999999999 5.043633544921875 0.062249999999999917 Q 5.018883544921875 0.07199999999999984 5.011383544921876 0.09824999999999995 Q 5.003883544921876 0.12449999999999994 5.003883544921876 0.17999999999999994 L 5.003883544921876 0.9239999999999999 Q 5.003883544921876 0.978 5.012133544921875 1.005 Q 5.020383544921875 1.032 5.0443835449218755 1.041 Q 5.0683835449218755 1.05 5.1163835449218755 1.053 L 5.1163835449218755 1.083 Q 5.075883544921876 1.08 5.014383544921875 1.07925 Q 4.9528835449218755 1.0785 4.889883544921876 1.0785 Q 4.816383544921876 1.0785 4.754133544921876 1.07925 Q 4.691883544921875 1.08 4.652883544921876 1.083 M 4.906383544921876 0.564 L 4.906383544921876 0.5339999999999999 L 5.498883544921876 0.5339999999999999 L 5.498883544921876 0.564 L 4.906383544921876 0.564 M 6.356865234375 0.018000000000000016 L 6.721365234375001 0.957 Q 6.742365234375001 1.011 6.768615234375001 1.03125 Q 6.794865234375001 1.0514999999999999 6.815865234375001 1.053 L 6.815865234375001 1.083 Q 6.770865234375001 1.08 6.710115234375 1.07925 Q 6.649365234375001 1.0785 6.587865234375001 1.0785 Q 6.518865234375001 1.0785 6.4573652343750005 1.07925 Q 6.395865234375001 1.08 6.359865234375 1.083 L 6.359865234375 1.053 Q 6.436365234375001 1.05 6.4566152343750005 1.02675 Q 6.476865234375 1.0035 6.446865234375001 0.9269999999999999 L 6.191865234375001 0.22949999999999993 L 6.218865234375 0.1904999999999999 L 5.990865234375001 0.7845 Q 5.948865234375001 0.8955 5.949615234375001 0.9524999999999999 Q 5.950365234375001 1.0095 5.9863652343750005 1.02975 Q 6.022365234375001 1.05 6.0823652343750005 1.053 L 6.0823652343750005 1.083 Q 6.032865234375 1.08 5.9878652343750005 1.07925 Q 5.942865234375001 1.0785 5.896365234375001 1.0785 Q 5.863365234375001 1.0785 5.834115234375001 1.07925 Q 5.804865234375001 1.08 5.782365234375001 1.083 L 5.782365234375001 1.053 Q 5.813865234375001 1.047 5.8468652343750005 1.0125 Q 5.879865234375001 0.978 5.911365234375 0.8955 L 6.253365234375001 0.018000000000000016 Q 6.277365234375001 0.01949999999999985 6.305115234375001 0.01949999999999985 Q 6.332865234375001 0.01949999999999985 6.356865234375 0.018000000000000016 M 6.461865234375001 0.651 L 6.461865234375001 0.6809999999999999 L 6.014865234375001 0.6809999999999999 L 6.029865234375 0.651 L 6.461865234375001 0.651 M 7.847810302734376 1.083 L 7.847810302734376 1.053 Q 7.895810302734376 1.05 7.919810302734376 1.041 Q 7.943810302734376 1.032 7.952060302734376 1.005 Q 7.960310302734376 0.978 7.960310302734376 0.9239999999999999 L 7.960310302734376 0.17999999999999994 Q 7.960310302734376 0.12449999999999994 7.952060302734376 0.09824999999999995 Q 7.943810302734376 0.07199999999999984 7.919060302734376 0.062249999999999917 Q 7.894310302734376 0.05249999999999999 7.847810302734376 0.050999999999999934 L 7.847810302734376 0.020999999999999908 Q 7.888310302734376 0.022499999999999964 7.953560302734376 0.02400000000000002 Q 8.018810302734376 0.025499999999999856 8.083310302734375 0.025499999999999856 Q 8.152310302734376 0.025499999999999856 8.213060302734377 0.02400000000000002 Q 8.273810302734375 0.022499999999999964 8.311310302734377 0.020999999999999908 L 8.311310302734377 0.050999999999999934 Q 8.263310302734375 0.05249999999999999 8.238560302734376 0.062249999999999917 Q 8.213810302734377 0.07199999999999984 8.206310302734376 0.09824999999999995 Q 8.198810302734376 0.12449999999999994 8.198810302734376 0.17999999999999994 L 8.198810302734376 0.9239999999999999 Q 8.198810302734376 0.978 8.207060302734376 1.005 Q 8.215310302734377 1.032 8.239310302734376 1.041 Q 8.263310302734375 1.05 8.311310302734377 1.053 L 8.311310302734377 1.083 Q 8.273810302734375 1.08 8.213060302734377 1.07925 Q 8.152310302734376 1.0785 8.083310302734375 1.0785 Q 8.018810302734376 1.0785 7.953560302734376 1.07925 Q 7.888310302734376 1.08 7.847810302734376 1.083 M 7.211810302734376 1.083 L 7.211810302734376 1.053 Q 7.259810302734376 1.05 7.283810302734376 1.041 Q 7.307810302734376 1.032 7.316060302734376 1.005 Q 7.324310302734376 0.978 7.324310302734376 0.9239999999999999 L 7.324310302734376 0.17999999999999994 Q 7.324310302734376 0.12449999999999994 7.316060302734376 0.09824999999999995 Q 7.307810302734376 0.07199999999999984 7.283060302734376 0.062249999999999917 Q 7.258310302734376 0.05249999999999999 7.211810302734376 0.050999999999999934 L 7.211810302734376 0.020999999999999908 Q 7.250810302734376 0.022499999999999964 7.313060302734376 0.02400000000000002 Q 7.375310302734376 0.025499999999999856 7.448810302734376 0.025499999999999856 Q 7.511810302734376 0.025499999999999856 7.5733103027343756 0.02400000000000002 Q 7.634810302734376 0.022499999999999964 7.675310302734376 0.020999999999999908 L 7.675310302734376 0.050999999999999934 Q 7.627310302734376 0.05249999999999999 7.602560302734376 0.062249999999999917 Q 7.577810302734376 0.07199999999999984 7.570310302734376 0.09824999999999995 Q 7.562810302734376 0.12449999999999994 7.562810302734376 0.17999999999999994 L 7.562810302734376 0.9239999999999999 Q 7.562810302734376 0.978 7.5710603027343755 1.005 Q 7.579310302734376 1.032 7.603310302734376 1.041 Q 7.627310302734376 1.05 7.675310302734376 1.053 L 7.675310302734376 1.083 Q 7.634810302734376 1.08 7.5733103027343756 1.07925 Q 7.511810302734376 1.0785 7.448810302734376 1.0785 Q 7.375310302734376 1.0785 7.313060302734376 1.07925 Q 7.250810302734376 1.08 7.211810302734376 1.083 M 7.465310302734376 0.564 L 7.465310302734376 0.5339999999999999 L 8.057810302734376 0.5339999999999999 L 8.057810302734376 0.564 L 7.465310302734376 0.564 M 8.947298583984375 0 Q 9.106298583984376 0 9.225548583984375 0.0645 Q 9.344798583984376 0.1289999999999999 9.410798583984375 0.24974999999999992 Q 9.476798583984376 0.37049999999999994 9.476798583984376 0.5429999999999999 Q 9.476798583984376 0.711 9.409298583984377 0.837 Q 9.341798583984376 0.963 9.221048583984375 1.0334999999999999 Q 9.100298583984376 1.1039999999999999 8.945798583984375 1.1039999999999999 Q 8.786798583984377 1.1039999999999999 8.667548583984376 1.0394999999999999 Q 8.548298583984376 0.975 8.482298583984376 0.8534999999999999 Q 8.416298583984377 0.732 8.416298583984377 0.5609999999999999 Q 8.416298583984377 0.3929999999999999 8.484548583984376 0.2669999999999999 Q 8.552798583984377 0.1409999999999999 8.672048583984376 0.07050000000000001 Q 8.791298583984377 0 8.947298583984375 0 M 8.941298583984375 0.026999999999999913 Q 8.857298583984376 0.026999999999999913 8.795048583984377 0.09449999999999992 Q 8.732798583984376 0.16199999999999992 8.699048583984377 0.28049999999999997 Q 8.665298583984375 0.3989999999999999 8.665298583984375 0.5549999999999999 Q 8.665298583984375 0.714 8.703548583984375 0.83175 Q 8.741798583984377 0.9495 8.807048583984376 1.01325 Q 8.872298583984376 1.077 8.951798583984376 1.077 Q 9.035798583984375 1.077 9.098048583984376 1.0095 Q 9.160298583984376 0.942 9.194048583984376 0.82275 Q 9.227798583984375 0.7035 9.227798583984375 0.5489999999999999 Q 9.227798583984375 0.38849999999999996 9.189548583984376 0.27149999999999996 Q 9.151298583984376 0.15449999999999997 9.086048583984375 0.09075 Q 9.020798583984377 0.026999999999999913 8.941298583984375 0.026999999999999913 M 10.5433359375 0.020999999999999908 L 10.5433359375 0.050999999999999934 Q 10.495335937500002 0.05699999999999994 10.470585937500001 0.07574999999999998 Q 10.445835937500002 0.09449999999999992 10.438335937500002 0.1349999999999999 Q 10.430835937500001 0.1755 10.430835937500001 0.249 L 10.430835937500001 0.6465 Q 10.430835937500001 0.744 10.4173359375 0.825 Q 10.403835937500002 0.9059999999999999 10.3693359375 0.9644999999999999 Q 10.330335937500001 1.029 10.255335937500002 1.0665 Q 10.1803359375 1.1039999999999999 10.064835937500002 1.1039999999999999 Q 9.9958359375 1.1039999999999999 9.923835937500002 1.08825 Q 9.8518359375 1.0725 9.7948359375 1.029 Q 9.746835937500002 0.9884999999999999 9.721335937500001 0.9375 Q 9.695835937500002 0.8865 9.686835937500001 0.81675 Q 9.677835937500001 0.7469999999999999 9.677835937500001 0.651 L 9.677835937500001 0.17999999999999994 Q 9.677835937500001 0.12449999999999994 9.6695859375 0.09824999999999995 Q 9.6613359375 0.07199999999999984 9.637335937500001 0.062249999999999917 Q 9.6133359375 0.05249999999999999 9.5653359375 0.050999999999999934 L 9.5653359375 0.020999999999999908 Q 9.602835937500002 0.022499999999999964 9.6665859375 0.02400000000000002 Q 9.730335937500001 0.025499999999999856 9.7993359375 0.025499999999999856 Q 9.868335937500001 0.025499999999999856 9.932085937500002 0.02400000000000002 Q 9.9958359375 0.022499999999999964 10.0378359375 0.020999999999999908 L 10.0378359375 0.050999999999999934 Q 9.9868359375 0.05249999999999999 9.960585937500001 0.062249999999999917 Q 9.934335937500002 0.07199999999999984 9.925335937500002 0.09824999999999995 Q 9.916335937500001 0.12449999999999994 9.916335937500001 0.17999999999999994 L 9.916335937500001 0.7454999999999999 Q 9.916335937500001 0.846 9.934335937500002 0.91425 Q 9.952335937500001 0.9824999999999999 9.9980859375 1.017 Q 10.0438359375 1.0514999999999999 10.123335937500002 1.0514999999999999 Q 10.2283359375 1.0514999999999999 10.287585937500001 1.002 Q 10.346835937500002 0.9524999999999999 10.3715859375 0.8647499999999999 Q 10.396335937500002 0.7769999999999999 10.396335937500002 0.663 L 10.396335937500002 0.2669999999999999 Q 10.396335937500002 0.1845 10.385835937500001 0.14024999999999999 Q 10.375335937500001 0.09599999999999997 10.344585937500002 0.07650000000000001 Q 10.3138359375 0.05699999999999994 10.250835937500002 0.050999999999999934 L 10.250835937500002 0.020999999999999908 Q 10.2793359375 0.022499999999999964 10.3258359375 0.02400000000000002 Q 10.3723359375 0.025499999999999856 10.4128359375 0.025499999999999856 Q 10.448835937500002 0.025499999999999856 10.484085937500002 0.02400000000000002 Q 10.519335937500001 0.022499999999999964 10.5433359375 0.020999999999999908 M 10.999374755859376 0.0014999999999998348 Q 11.087874755859376 0.0014999999999998348 11.135874755859376 0.02024999999999988 Q 11.183874755859376 0.038999999999999924 11.218374755859376 0.05999999999999983 Q 11.236374755859377 0.07050000000000001 11.247624755859377 0.07574999999999998 Q 11.258874755859376 0.08099999999999996 11.269374755859376 0.08099999999999996 Q 11.293374755859377 0.08099999999999996 11.302374755859375 0.014999999999999902 L 11.336874755859377 0.014999999999999902 Q 11.335374755859377 0.04349999999999987 11.333124755859377 0.08324999999999994 Q 11.330874755859377 0.123 11.330124755859377 0.1874999999999999 Q 11.329374755859376 0.2519999999999999 11.329374755859376 0.357 L 11.294874755859377 0.357 Q 11.288874755859377 0.2789999999999999 11.258874755859376 0.2054999999999999 Q 11.228874755859376 0.1319999999999999 11.174124755859376 0.08474999999999999 Q 11.119374755859376 0.03749999999999987 11.039874755859376 0.03749999999999987 Q 10.967874755859377 0.03749999999999987 10.921374755859377 0.07799999999999985 Q 10.874874755859377 0.11849999999999994 10.874874755859377 0.1904999999999999 Q 10.874874755859377 0.25049999999999994 10.904874755859376 0.2932499999999999 Q 10.934874755859376 0.33599999999999997 10.992624755859376 0.37649999999999995 Q 11.050374755859377 0.4169999999999999 11.132874755859376 0.474 Q 11.204874755859377 0.5205 11.261874755859376 0.567 Q 11.318874755859376 0.6134999999999999 11.353374755859376 0.6719999999999999 Q 11.387874755859377 0.7304999999999999 11.387874755859377 0.8114999999999999 Q 11.387874755859377 0.9105 11.336124755859377 0.975 Q 11.284374755859377 1.0394999999999999 11.200374755859377 1.07175 Q 11.116374755859376 1.1039999999999999 11.015874755859377 1.1039999999999999 Q 10.922874755859377 1.1039999999999999 10.867374755859377 1.0859999999999999 Q 10.811874755859376 1.068 10.774374755859377 1.0485 Q 10.741374755859376 1.0274999999999999 10.723374755859377 1.0274999999999999 Q 10.699374755859376 1.0274999999999999 10.690374755859377 1.0935 L 10.655874755859376 1.0935 Q 10.658874755859376 1.0574999999999999 10.659624755859376 1.0095 Q 10.660374755859376 0.9615 10.661124755859376 0.88425 Q 10.661874755859376 0.8069999999999999 10.661874755859376 0.6884999999999999 L 10.696374755859376 0.6884999999999999 Q 10.702374755859376 0.7875 10.730124755859377 0.87375 Q 10.757874755859376 0.96 10.815624755859377 1.0125 Q 10.873374755859377 1.065 10.969374755859377 1.065 Q 11.047374755859376 1.065 11.101374755859377 1.023 Q 11.155374755859377 0.981 11.155374755859377 0.897 Q 11.155374755859377 0.8039999999999999 11.092374755859376 0.74325 Q 11.029374755859376 0.6824999999999999 10.930374755859376 0.6179999999999999 Q 10.859874755859376 0.5714999999999999 10.798374755859376 0.5249999999999999 Q 10.736874755859377 0.4784999999999999 10.700124755859376 0.4185 Q 10.663374755859376 0.35849999999999993 10.663374755859376 0.2759999999999999 Q 10.663374755859376 0.1815 10.710624755859376 0.12074999999999991 Q 10.757874755859376 0.05999999999999983 10.835124755859376 0.030749999999999833 Q 10.912374755859377 0.0014999999999998348 10.999374755859376 0.0014999999999998348 M 12.305851318359377 0.020999999999999908 Q 12.299851318359377 0.08699999999999997 12.297601318359376 0.14849999999999997 Q 12.295351318359376 0.20999999999999996 12.295351318359376 0.243 Q 12.295351318359376 0.2729999999999999 12.296851318359376 0.29999999999999993 Q 12.298351318359376 0.32699999999999996 12.299851318359377 0.345 L 12.265351318359377 0.345 Q 12.250351318359376 0.23549999999999993 12.218851318359377 0.17174999999999996 Q 12.187351318359376 0.10799999999999998 12.137101318359376 0.08174999999999999 Q 12.086851318359376 0.05549999999999988 12.019351318359377 0.05549999999999988 L 11.957851318359376 0.05549999999999988 Q 11.912851318359376 0.05549999999999988 11.891101318359377 0.06299999999999994 Q 11.869351318359376 0.07050000000000001 11.861851318359376 0.09224999999999994 Q 11.854351318359376 0.11399999999999999 11.854351318359376 0.16199999999999992 L 11.854351318359376 0.942 Q 11.854351318359376 0.9884999999999999 11.861851318359376 1.011 Q 11.869351318359376 1.0334999999999999 11.891101318359377 1.041 Q 11.912851318359376 1.0485 11.957851318359376 1.0485 L 12.031351318359377 1.0485 Q 12.098851318359376 1.0485 12.150601318359376 1.01925 Q 12.202351318359376 0.99 12.239101318359376 0.9195 Q 12.275851318359376 0.849 12.295351318359376 0.729 L 12.329851318359376 0.729 Q 12.325351318359376 0.7769999999999999 12.325351318359376 0.855 Q 12.325351318359376 0.8895 12.326851318359376 0.9524999999999999 Q 12.328351318359376 1.0154999999999998 12.335851318359376 1.083 Q 12.259351318359377 1.08 12.163351318359377 1.07925 Q 12.067351318359377 1.0785 11.992351318359376 1.0785 Q 11.941351318359377 1.0785 11.857351318359376 1.0785 Q 11.773351318359376 1.0785 11.678851318359376 1.07925 Q 11.584351318359376 1.08 11.503351318359377 1.083 L 11.503351318359377 1.053 Q 11.551351318359377 1.05 11.575351318359376 1.041 Q 11.599351318359377 1.032 11.607601318359377 1.005 Q 11.615851318359377 0.978 11.615851318359377 0.9239999999999999 L 11.615851318359377 0.17999999999999994 Q 11.615851318359377 0.12449999999999994 11.607601318359377 0.09824999999999995 Q 11.599351318359377 0.07199999999999984 11.574601318359376 0.062249999999999917 Q 11.549851318359377 0.05249999999999999 11.503351318359377 0.050999999999999934 L 11.503351318359377 0.020999999999999908 Q 11.584351318359376 0.022499999999999964 11.678851318359376 0.02400000000000002 Q 11.773351318359376 0.025499999999999856 11.857351318359376 0.025499999999999856 Q 11.941351318359377 0.025499999999999856 11.992351318359376 0.025499999999999856 Q 12.061351318359376 0.025499999999999856 12.149101318359376 0.02475000000000005 Q 12.236851318359376 0.02400000000000002 12.305851318359377 0.020999999999999908 M 12.071851318359377 0.5339999999999999 Q 12.071851318359377 0.5339999999999999 12.071851318359377 0.5489999999999999 Q 12.071851318359377 0.564 12.071851318359377 0.564 L 11.809351318359376 0.564 Q 11.809351318359376 0.564 11.809351318359376 0.5489999999999999 Q 11.809351318359376 0.5339999999999999 11.809351318359376 0.5339999999999999 L 12.071851318359377 0.5339999999999999 M 12.115351318359377 0.33599999999999997 Q 12.109351318359376 0.4215 12.110101318359376 0.4664999999999999 Q 12.110851318359376 0.5115 12.110851318359376 0.5489999999999999 Q 12.110851318359376 0.5865 12.112351318359377 0.6315 Q 12.113851318359377 0.6764999999999999 12.119851318359377 0.762 L 12.085351318359375 0.762 Q 12.077851318359377 0.7095 12.057601318359376 0.6645 Q 12.037351318359377 0.6194999999999999 11.999851318359376 0.59175 Q 11.962351318359376 0.564 11.902351318359376 0.564 L 11.902351318359376 0.5339999999999999 Q 11.962351318359376 0.5339999999999999 11.998351318359376 0.501 Q 12.034351318359377 0.46799999999999997 12.053851318359376 0.4222499999999999 Q 12.073351318359377 0.37649999999999995 12.080851318359377 0.33599999999999997 L 12.115351318359377 0.33599999999999997" fill="#595959" fill-rule="nonzero"></path></g><g></g></g><defs><clipPath id="SvgjsClipPath3807"><path d=" M 1.5259592141032225 -10.991581178893274 h 9.351391142106053 v 10.741581178893274 h -9.351391142106053 Z"></path></clipPath><clipPath id="ba51ccff9-2920-467d-aaa4-27d2e3f84662cb38fdce-28a0-4f6b-9405-8fbf2eb9b2b7"><path d=" M 0.9388711870968618 -11.04403722133487 L 11.464385927173193 -11.04403722133487 L 11.464385927173193 0.21565228875406284 L 0.9388711870968618 0.21565228875406284 Z"></path></clipPath></defs></svg>